# AST/ASF file generated using VICON BodyLanguage
# -----------------------------------------------
:version 1.10
:name VICON
:units
  mass 1.0
  length 0.45
  angle deg
:documentation
   .ast/.asf automatically generated from VICON data using
   VICON BodyBuilder and BodyLanguage model FoxedUp or BRILLIANT.MOD
:root
   order TX TY TZ RX RY RZ
   axis XYZ
   position 0 0 0  
   orientation 0 0 0 
:bonedata
  begin
     id 1 
     name lhipjoint
     direction 0.602128 -0.715006 0.355257 
     length 2.21237 
     axis 0 0 0  XYZ
  end
  begin
     id 2 
     name lfemur
     direction 0.34202 -0.939693 0  
     length 6.71649  
     axis 0 0 20  XYZ
    dof rx ry rz
    limits (-160.0 20.0)
           (-70.0 70.0)
           (-60.0 70.0)
  end
  begin
     id 3 
     name ltibia
     direction 0.34202 -0.939693 0   
     length 6.97123   
     axis 0 0 20   XYZ
    dof rx
    limits (-10.0 170.0)
  end
  begin
     id 4 
     name lfoot
     direction 0.0655697 -0.180151 0.981451   
     length 1.80924   
     axis -90 7.62852e-016 20   XYZ
    dof rx rz
    limits (-45.0 90.0)
           (-70.0 20.0)
  end
  begin
     id 5 
     name ltoes
     direction 1.53545e-011 -4.21827e-011 1   
     length 0.916331   
     axis -90 7.62852e-016 20   XYZ
    dof rx
    limits (-90.0 20.0)
  end
  begin
     id 6 
     name rhipjoint
     direction -0.625414 -0.698792 0.347201   
     length 2.2637  
     axis 0 0 0  XYZ 
  end
  begin
     id 7 
     name rfemur
     direction -0.34202 -0.939693 0   
     length 7.07595   
     axis 0 0 -20   XYZ
    dof rx ry rz
    limits (-160.0 20.0)
           (-70.0 70.0)
           (-70.0 60.0)
  end
  begin
     id 8 
     name rtibia
     direction -0.34202 -0.939693 0   
     length 7.22924   
     axis 0 0 -20   XYZ
    dof rx
    limits (-10.0 170.0)
 end
 begin
     id 9 
     name rfoot
     direction -0.0766747 -0.210662 0.974547   
     length 1.98482  
     axis -90 -7.62852e-016 -20   XYZ
    dof rx rz
    limits (-45.0 90.0)
           (-20.0 70.0)
  end
  begin
     id 10 
     name rtoes
     direction -1.53532e-011 -4.21867e-011 1   
     length 0.999842   
     axis -90 -7.62852e-016 -20   XYZ
    dof rx
    limits (-90.0 20.0)
  end
  begin
     id 11 
     name lowerback
     direction -0.0224668 0.997354 -0.0691422   
     length 2.09945   
     axis 0 0 0   XYZ
    dof rx ry rz
    limits (-20.0 45.0)
           (-30.0 30.0)
           (-30.0 30.0)
  end
  begin
     id 12 
     name upperback
     direction 0.0134698 0.998451 -0.0539888   
     length 2.09758   
     axis 0 0 0   XYZ
    dof rx ry rz
    limits (-20.0 45.0)
           (-30.0 30.0)
           (-30.0 30.0)
  end
  begin
     id 13 
     name thorax
     direction 0.0241905 0.99948 -0.0213333   
     length 2.10428   
     axis 0 0 0   XYZ
    dof rx ry rz
    limits (-20.0 45.0)
           (-30.0 30.0)
           (-30.0 30.0)
  end
  begin
     id 14 
     name lowerneck
     direction -0.00866847 0.995978 0.0891737   
     length 1.3959   
     axis 0 0 0   XYZ
    dof rx ry rz
    limits (-20.0 45.0)
           (-30.0 30.0)
           (-30.0 30.0)
  end
  begin
     id 15 
     name upperneck
     direction 0.0680679 0.992203 0.104404   
     length 1.39452   
     axis 0 0 0   XYZ
    dof rx ry rz
    limits (-20.0 45.0)
           (-30.0 30.0)
           (-30.0 30.0)
  end
  begin
     id 16
     name head
     direction 0.0242216 0.999358 0.0264054  
     length 1.40433  
     axis 0 0 0   XYZ
    dof rx ry rz
    limits (-20.0 45.0)
           (-30.0 30.0)
           (-30.0 30.0)
  end
  begin
     id 17 
     name lclavicle
     direction 0.929368 0.362991 -0.0671771  
     length 3.04887  
     axis 0 0 0   XYZ
    dof ry rz
    limits (-20.0 10.0)
           (0.0 20.0)
  end
  begin
     id 18 
     name lhumerus
     direction 1 -4.48967e-011 -7.13741e-028   
     length 4.77195   
     axis -180 -30 -90   XYZ
    dof rx ry rz
    limits (-60.0 90.0)
           (-90.0 90.0)
           (-90.0 90.0)
  end
  begin
     id 19
     name lradius
     direction 1 -4.48977e-011 3.60404e-027   
     length 2.98444   
     axis -180 -30 -90   XYZ
    dof rx
    limits (-10.0 170.0)
  end
  begin
     id 20
     name lwrist
     direction 1 -4.48997e-011 7.54877e-027   
     length 1.49222   
     axis -7.18178e-015 90 90   XYZ
    dof ry
    limits (-180.0 0.0)
 end
  begin
     id 21 
     name lhand
     direction 1 -4.489e-011 1.51105e-026   
     length 0.992285   
     axis -9.63605e-015 90 90   XYZ
    dof rx rz
    limits (-90.0 90.0)
           (-45.0 45.0)
  end
  begin
     id 22 
     name lfingers
     direction 1 -4.48998e-011 3.01948e-026   
     length 0.800006   
     axis -1.92718e-014 90 90   XYZ
    dof rx
    limits (0.0 90.0)
  end
  begin
     id 23
     name lthumb
     direction 0.707107 -6.34881e-011 0.707107   
     length 1.14865   
     axis -90 45 -3.53137e-014   XYZ
    dof rx rz
    limits (-45.0 45.0)
           (-45.0 45.0)
  end
  begin
     id 24 
     name rclavicle
     direction -0.945672 0.324529 0.0196374   
     length 3.4236  
     axis 0 0 0   XYZ 
    dof ry rz
    limits (-10.0 20.0)
           (-20.0 0.0)
  end
  begin
     id 25 
     name rhumerus
     direction -1 -4.4896e-011 1.02757e-029  
     length 4.62052   
     axis -180 30 90   XYZ
    dof rx ry rz
    limits (-90.0 60.0)
           (-90.0 90.0)
           (-90.0 90.0)
  end
  begin
     id 26 
     name rradius
     direction -1 -4.48982e-011 3.85962e-027   
     length 2.95332   
     axis -180 30 90   XYZ
    dof rx
    limits (-10.0 170.0)
  end
  begin
     id 27 
     name rwrist
     direction -1 -4.48961e-011 7.55118e-027   
     length 1.47666   
     axis -7.18178e-015 -90 -90   XYZ
    dof ry
    limits (-180.0 0.0)
  end
  begin
     id 28
     name rhand
     direction -1 -4.48984e-011 1.50994e-026   
     length 0.990956   
     axis -9.63605e-015 -90 -90   XYZ
    dof rx rz
    limits (-90.0 90.0)
           (-45.0 45.0)
  end
  begin
     id 29
     name rfingers
     direction -1 -4.4892e-011 3.02158e-026   
     length 0.798934   
     axis -1.92718e-014 -90 -90   XYZ
    dof rx
    limits (0.0 90.0)
  end
  begin
     id 30
     name rthumb
     direction -0.707107 -6.34916e-011 0.707107   
     length 1.14711   
     axis -90 -45 3.53137e-014   XYZ
    dof rx rz
    limits (-45.0 45.0)
           (-45.0 45.0)
  end
:hierarchy
  begin
    root lhipjoint rhipjoint lowerback
    lhipjoint lfemur
    lfemur ltibia
    ltibia lfoot
    lfoot ltoes
    rhipjoint rfemur
    rfemur rtibia
    rtibia rfoot
    rfoot rtoes
    lowerback upperback
    upperback thorax
    thorax lowerneck lclavicle rclavicle
    lowerneck upperneck
    upperneck head
    lclavicle lhumerus
    lhumerus lradius
    lradius lwrist
    lwrist lhand lthumb
    lhand lfingers
    rclavicle rhumerus
    rhumerus rradius
    rradius rwrist
    rwrist rhand rthumb
    rhand rfingers
  end

#!OML:ASF H:\ManfredObstacles\Project 1\Capture day 1\Session 1\Male.ASF
:FULLY-SPECIFIED
:DEGREES
192
root 0.149842 16.2596 12.6986 -167.019 -10.4775 184.829
lowerback -10.9614 -2.39314 -0.486236
upperback 0.00840121 -3.35207 2.28041
thorax 6.32791 -1.73284 2.11887
lowerneck 2.25753 -2.64664 -5.41467
upperneck -15.0749 -3.4392 11.2541
head -4.53927 -2.4571 4.58411
rclavicle 2.99668e-014 -1.70955e-014
rhumerus -33.8098 -20.2259 -75.9635
rradius 25.9338
rwrist 35.3678
rhand -0.0663576 -7.16296
rfingers 7.12502
rthumb 25.5268 -35.4728
lclavicle 2.99668e-014 -1.70955e-014
lhumerus -28.9346 22.5279 80.5859
lradius 15.2109
lwrist -38.9313
lhand -8.3636 8.1214
lfingers 7.12502
lthumb 17.559 37.3485
rfemur -37.3191 -8.55701 28.1538
rtibia 29.9473
rfoot -8.8428 19.7353
rtoes 21.0928
lfemur 6.2251 3.52293 -13.5526
ltibia 1.90833e-014
lfoot -3.03993 -19.6714
ltoes 10.2805
193
root 0.161636 16.2661 12.6638 -166.817 -10.4877 184.677
lowerback -10.9109 -2.42084 -0.574057
upperback -0.0825434 -3.37317 2.22979
thorax 6.20595 -1.74461 2.11524
lowerneck 2.20653 -2.61796 -5.52943
upperneck -15.1057 -3.39342 11.454
head -4.53625 -2.44546 4.66532
rclavicle 3.07122e-014 -1.86858e-014
rhumerus -33.9326 -20.1937 -76.1104
rradius 25.9483
rwrist 35.3262
rhand -0.115405 -7.154
rfingers 7.12502
rthumb 25.4798 -35.4706
lclavicle 3.07122e-014 -1.86858e-014
lhumerus -28.3295 20.465 81.7644
lradius 16.0095
lwrist -37.1801
lhand -8.30103 8.35402
lfingers 7.12502
lthumb 17.6192 37.5757
rfemur -37.52 -8.58527 28.069
rtibia 30.158
rfoot -8.94818 19.8358
rtoes 21.3923
lfemur 6.12948 3.49734 -13.6378
ltibia -2.54444e-014
lfoot -3.08934 -19.7204
ltoes 9.47323
194
root 0.170544 16.2712 12.637 -166.586 -10.5824 184.532
lowerback -10.8788 -2.47741 -0.595873
upperback -0.14888 -3.44013 2.16551
thorax 6.11784 -1.77645 2.05159
lowerneck 2.14163 -2.60943 -5.51173
upperneck -15.204 -3.38212 11.5397
head -4.5542 -2.45471 4.69132
rclavicle -3.27995e-014 -7.55382e-015
rhumerus -33.9614 -20.0838 -76.3343
rradius 25.8894
rwrist 35.1762
rhand -0.213819 -7.09231
rfingers 7.12502
rthumb 25.3856 -35.4223
lclavicle -3.27995e-014 -7.55382e-015
lhumerus -27.7189 18.5458 82.822
lradius 16.9494
lwrist -35.6058
lhand -8.14316 8.52024
lfingers 7.12502
lthumb 17.7711 37.7282
rfemur -37.7706 -8.80336 28.0403
rtibia 30.3344
rfoot -9.07053 20.0458
rtoes 21.189
lfemur 5.965 3.39394 -13.7451
ltibia -4.45278e-014
lfoot -3.19713 -19.6769
ltoes 8.82015
195
root 0.181426 16.2714 12.6175 -166.442 -10.6176 184.49
lowerback -10.78 -2.48346 -0.54723
upperback -0.150158 -3.45075 2.14083
thorax 6.05687 -1.77921 2.00071
lowerneck 1.99863 -2.60918 -5.4823
upperneck -15.3232 -3.39016 11.5515
head -4.5656 -2.46957 4.69152
rclavicle -1.01877e-014 -8.15017e-015
rhumerus -33.8506 -20.1796 -76.458
rradius 25.75
rwrist 35.197
rhand -0.270723 -6.96613
rfingers 7.12502
rthumb 25.331 -35.3039
lclavicle -1.01877e-014 -8.15017e-015
lhumerus -27.0964 16.7348 83.8362
lradius 18.0043
lwrist -34.3181
lhand -8.00351 8.61285
lfingers 7.12502
lthumb 17.9055 37.8086
rfemur -37.9213 -8.92325 28.1092
rtibia 30.4184
rfoot -9.06412 20.1441
rtoes 22.2297
lfemur 5.88612 3.36416 -13.7406
ltibia -4.13472e-014
lfoot -3.19195 -19.6677
ltoes 8.97778
196
root 0.195213 16.2685 12.6028 -166.403 -10.5758 184.515
lowerback -10.6111 -2.45037 -0.498108
upperback -0.096054 -3.41047 2.15104
thorax 6.01494 -1.75736 1.99619
lowerneck 1.86035 -2.56635 -5.4969
upperneck -15.5146 -3.34444 11.5593
head -4.60382 -2.4593 4.69901
rclavicle -1.14301e-015 -7.55382e-015
rhumerus -33.6963 -20.3927 -76.5084
rradius 25.6784
rwrist 35.2836
rhand -0.217972 -6.92419
rfingers 7.12502
rthumb 25.3816 -35.2548
lclavicle -1.14301e-015 -7.55382e-015
lhumerus -26.205 15.1113 84.7697
lradius 18.5003
lwrist -33.3053
lhand -8.25339 8.42213
lfingers 7.12502
lthumb 17.665 37.6397
rfemur -37.96 -8.95111 28.2386
rtibia 30.5107
rfoot -9.20538 20.2302
rtoes 22.0912
lfemur 5.90464 3.41524 -13.651
ltibia -1.27222e-014
lfoot -3.30412 -19.6914
ltoes 8.58577
197
root 0.207038 16.2617 12.5878 -166.495 -10.6216 184.744
lowerback -10.426 -2.41923 -0.207738
upperback -0.00925634 -3.40669 2.20338
thorax 5.98854 -1.74789 1.89431
lowerneck 1.83752 -2.476 -5.53134
upperneck -15.7981 -3.23259 11.5935
head -4.69485 -2.42325 4.72234
rclavicle 5.23301e-014 -6.36111e-015
rhumerus -33.6311 -20.4802 -76.6093
rradius 25.7153
rwrist 35.2549
rhand -0.124245 -6.86877
rfingers 7.12502
rthumb 25.4714 -35.1866
lclavicle 5.23301e-014 -6.36111e-015
lhumerus -24.7931 12.8565 85.8101
lradius 17.9791
lwrist -31.6713
lhand -8.96559 8.066
lfingers 7.12502
lthumb 16.9796 37.3439
rfemur -37.8237 -9.05733 28.5824
rtibia 30.5569
rfoot -9.38379 20.3626
rtoes 21.6671
lfemur 6.01811 3.41828 -13.3275
ltibia 4.13472e-014
lfoot -3.41312 -19.6622
ltoes 8.54447
198
root 0.210992 16.2592 12.5752 -166.303 -10.7417 184.434
lowerback -10.4538 -2.48003 -0.340617
upperback 0.0462993 -3.45978 2.09855
thorax 6.06601 -1.77373 1.84857
lowerneck 1.67309 -2.40666 -5.47436
upperneck -16.017 -3.15523 11.5599
head -4.74254 -2.40169 4.70428
rclavicle 1.30701e-014 -3.16068e-014
rhumerus -33.5459 -20.4415 -76.8193
rradius 25.7805
rwrist 35.1534
rhand -0.174468 -6.81533
rfingers 7.12502
rthumb 25.4233 -35.14
lclavicle 1.30701e-014 -3.16068e-014
lhumerus -24.0134 10.9576 86.6516
lradius 18.7734
lwrist -30.3304
lhand -8.88454 8.26664
lfingers 7.12502
lthumb 17.0576 37.5378
rfemur -37.9168 -9.51124 28.4022
rtibia 30.5349
rfoot -9.32535 20.7133
rtoes 22.0809
lfemur 5.8783 3.24378 -13.6509
ltibia -1.90833e-014
lfoot -3.38582 -19.5455
ltoes 9.46234
199
root 0.218844 16.2579 12.5663 -166.109 -10.8098 184.473
lowerback -10.5203 -2.4492 -0.220868
upperback 0.095823 -3.43677 2.12531
thorax 6.14955 -1.75946 1.80928
lowerneck 1.42406 -2.39996 -5.36324
upperneck -16.1703 -3.1713 11.4105
head -4.75143 -2.41595 4.6388
rclavicle -1.45113e-014 1.13307e-014
rhumerus -33.3965 -20.4117 -76.9458
rradius 25.7985
rwrist 35.1448
rhand -0.334779 -6.83575
rfingers 7.12502
rthumb 25.2697 -35.1822
lclavicle -1.45113e-014 1.13307e-014
lhumerus -23.0742 9.40765 87.4078
lradius 19.3539
lwrist -29.2373
lhand -8.74937 8.58207
lfingers 7.12502
lthumb 17.1877 37.8419
rfemur -38.0785 -9.44683 28.4673
rtibia 30.4854
rfoot -9.31002 20.6675
rtoes 22.3461
lfemur 5.65753 3.21156 -13.5774
ltibia -9.54166e-015
lfoot -3.27439 -19.4943
ltoes 10.4031
200
root 0.227058 16.2554 12.5575 -166.133 -10.9171 185.024
lowerback -10.4779 -2.34539 0.375871
upperback 0.148811 -3.39521 2.33458
thorax 6.15876 -1.72838 1.70068
lowerneck 1.32127 -2.39895 -5.37716
upperneck -16.3181 -3.19326 11.2512
head -4.78108 -2.42205 4.59433
rclavicle -7.35503e-015 3.16068e-014
rhumerus -33.3436 -20.2788 -76.905
rradius 25.8542
rwrist 35.1317
rhand -0.417086 -6.84795
rfingers 7.12502
rthumb 25.1908 -35.2055
lclavicle -7.35503e-015 3.16068e-014
lhumerus -22.2165 8.23321 88.1228
lradius 19.83
lwrist -28.4821
lhand -8.73797 8.70812
lfingers 7.12502
lthumb 17.1987 37.967
rfemur -38.0881 -9.27215 29.0563
rtibia 30.4563
rfoot -9.35342 20.5502
rtoes 22.5116
lfemur 5.60206 3.25047 -12.9125
ltibia 1.27222e-014
lfoot -3.21792 -19.5211
ltoes 11.0094
201
root 0.230385 16.2563 12.5458 -166.002 -10.9877 185.032
lowerback -10.5528 -2.34318 0.444547
upperback 0.142389 -3.41305 2.43215
thorax 6.1972 -1.73857 1.75861
lowerneck 1.39826 -2.33252 -5.55926
upperneck -16.4957 -3.11601 11.2163
head -4.85286 -2.37915 4.61983
rclavicle -5.96354e-015 -1.07344e-014
rhumerus -33.3946 -19.9752 -76.8223
rradius 25.9416
rwrist 34.9803
rhand -0.437762 -6.85582
rfingers 7.12502
rthumb 25.171 -35.2161
lclavicle -5.96354e-015 -1.07344e-014
lhumerus -21.486 7.47228 88.7205
lradius 20.2168
lwrist -28.1502
lhand -8.85301 8.61671
lfingers 7.12502
lthumb 17.0879 37.8852
rfemur -38.1811 -9.34606 29.1143
rtibia 30.4163
rfoot -9.40467 20.5646
rtoes 21.3291
lfemur 5.48093 3.20042 -12.8819
ltibia -2.8625e-014
lfoot -3.32441 -19.5013
ltoes 10.9123
202
root 0.233525 16.256 12.5361 -165.797 -11.045 184.838
lowerback -10.6337 -2.3486 0.342614
upperback 0.0806406 -3.4088 2.42817
thorax 6.18304 -1.74 1.81026
lowerneck 1.48133 -2.2758 -5.70975
upperneck -16.6258 -3.04031 11.2768
head -4.90931 -2.34372 4.66884
rclavicle -1.4561e-014 -6.55989e-015
rhumerus -33.5206 -19.9923 -76.6607
rradius 25.9072
rwrist 34.9994
rhand -0.507398 -6.84839
rfingers 7.12502
rthumb 25.1043 -35.2181
lclavicle -1.4561e-014 -6.55989e-015
lhumerus -20.8143 6.64511 89.2096
lradius 20.5384
lwrist -27.8418
lhand -8.9971 8.46384
lfingers 7.12502
lthumb 16.9492 37.7443
rfemur -38.3282 -9.31715 28.9029
rtibia 30.3968
rfoot -9.49949 20.3847
rtoes 21.0357
lfemur 5.30033 3.11833 -13.0911
ltibia 2.22639e-014
lfoot -3.39284 -19.4679
ltoes 10.6999
